<svg id="g27" xmlns="http://www.w3.org/2000/svg" width="41.282" height="41.883" viewBox="0 0 41.282 41.883">
  <path id="path27" d="M875.646,286.372a6.274,6.274,0,0,0-11.369-5.241A20.58,20.58,0,0,0,875.646,286.372Z" transform="translate(-857.489 -244.517)" fill="#c8ff88"/>
  <path id="path26" d="M855.092,220.106a18.616,18.616,0,0,0-30.506-13.9,21.222,21.222,0,0,0,3.322,7.751,10.742,10.742,0,0,1,19.148,8.785,20.5,20.5,0,0,0,8.036-2.634Z" transform="translate(-824.225 -180.856)" fill="#c8ff88"/>
  <path id="path25" d="M862.781,144.148a30.591,30.591,0,0,0-37.505-16.681,21.293,21.293,0,0,0-2.915,9.8,23.08,23.08,0,0,1,35.114,16,21.123,21.123,0,0,0,5.306-9.126Z" transform="translate(-822.36 -117.194)" fill="#c8ff88"/>
  <path id="path24" d="M883.913,71.906a20.525,20.525,0,0,0-12.724,4.556,34.439,34.439,0,0,1,33.375,14.791A20.858,20.858,0,0,0,883.913,71.906Z" transform="translate(-863.282 -71.906)" fill="#c8ff88"/>
</svg>
